<svg id="Capa_1" enable-background="new 0 0 512 512" viewBox="0 0 512 512" xmlns="http://www.w3.org/2000/svg" xmlns:xlink="http://www.w3.org/1999/xlink"><linearGradient id="SVGID_1_" gradientUnits="userSpaceOnUse" x1="196.594" x2="239.64" y1="375.528" y2="375.528"><stop offset="0" stop-color="#a996eb"/><stop offset="1" stop-color="#d7d1eb"/></linearGradient><linearGradient id="SVGID_00000118354817046669608720000002936592408097783210_" gradientUnits="userSpaceOnUse" x1="239.035" x2="239.035" y1="229.427" y2="365.94"><stop offset="0" stop-color="#7662bd"/><stop offset="1" stop-color="#7662bd" stop-opacity="0"/></linearGradient><linearGradient id="SVGID_00000132069232071781428280000001767907750695293852_" gradientUnits="userSpaceOnUse" x1="207.053" x2="298.827" y1="156.826" y2="-2.131"><stop offset="0" stop-color="#ab2c37"/><stop offset=".6742" stop-color="#ff959d"/><stop offset=".8403" stop-color="#ff6b77"/><stop offset="1" stop-color="#ff4757"/></linearGradient><linearGradient id="SVGID_00000137854942932163754510000013269973702755994268_" gradientTransform="matrix(.866 -.5 0 1.155 -223.152 -772.597)" gradientUnits="userSpaceOnUse" x1="573.641" x2="573.641" y1="1171.125" y2="924.747"><stop offset="0" stop-color="#ff4757"/><stop offset="1" stop-color="#ff959d"/></linearGradient><linearGradient id="SVGID_00000010293875763895868010000001717170352897882279_" gradientTransform="matrix(.866 -.5 0 1.155 -223.152 -772.597)" gradientUnits="userSpaceOnUse" x1="573.641" x2="573.641" y1="1133.48" y2="964.177"><stop offset="0" stop-color="#d7d1eb"/><stop offset="1" stop-color="#f2effa"/></linearGradient><g><path d="m203.72 239.056 28.186 266.529c.905 8.554 13.354 8.554 14.259 0l28.186-266.529z" fill="url(#SVGID_1_)"/><path d="m203.72 239.056 9.633 91.094c8.174-1.693 16.785-5.042 25.682-10.178 10.175-5.875 19.978-13.657 29.178-22.888l6.137-58.028z" fill="url(#SVGID_00000118354817046669608720000002936592408097783210_)"/><g><path d="m220.409 20.367c-11.214 8.254-20.976 18.304-29.321 29.45-28.97 38.693-48.51 91.497-48.51 139.11 0 39.93 13.749 67.632 35.271 78.63l33.655 19.479 123.987-266.35-15.993-9.203c-20.33-11.698-44.66-14.769-67.048-7.774-10.178 3.179-20.93 8.48-32.041 16.658z" fill="url(#SVGID_00000132069232071781428280000001767907750695293852_)"/><path d="m369.422 98.619c0-70.546-42.892-102.971-95.801-72.424s-95.801 112.499-95.801 183.045 42.891 102.971 95.801 72.424 95.801-112.499 95.801-183.045z" fill="url(#SVGID_00000137854942932163754510000013269973702755994268_)"/><path d="m339.452 115.922c0-48.477-29.474-70.758-65.831-49.767-36.358 20.991-65.831 77.306-65.831 125.782 0 48.477 29.473 70.758 65.831 49.767s65.831-77.306 65.831-125.782z" fill="url(#SVGID_00000010293875763895868010000001717170352897882279_)"/></g></g><g/><g/><g/><g/><g/><g/><g/><g/><g/><g/><g/><g/><g/><g/><g/></svg>