<svg preserveAspectRatio="none" width="100%" height="100%" overflow="visible" style="display: block;" viewBox="0 0 139 20" fill="none" xmlns="http://www.w3.org/2000/svg">
<path id="Union" d="M5.63665 20H0V3.76623H5.63665V20ZM16.9099 20H7.30202V3.76623H16.9099V20ZM27.7989 16.8571C27.7989 17.1342 27.8929 17.3767 28.0808 17.5845C28.2857 17.7749 28.5249 17.8701 28.7981 17.8701H37.7144C37.9876 17.8701 38.2267 17.7749 38.4317 17.5845C38.6367 17.3767 38.7392 17.1342 38.7392 16.8571V4.93507H40.8401V16.8571C40.8401 17.4285 40.6949 17.9567 40.4046 18.4416C40.1313 18.9091 39.7554 19.29 39.2771 19.5844C38.816 19.8614 38.2951 20 37.7144 20H28.7981C28.2345 20 27.7135 19.8614 27.2352 19.5844C26.774 19.29 26.3983 18.9091 26.1079 18.4416C25.8346 17.9567 25.6979 17.4285 25.6979 16.8571V4.93507H27.7989V16.8571ZM55.4521 7.06499H47.0996C46.8263 7.065 46.5872 7.16883 46.3822 7.3766C46.1944 7.56707 46.1004 7.80089 46.1004 8.07795V20H43.9995V8.07795C43.9995 7.50654 44.1361 6.98703 44.4094 6.51951C44.6997 6.03466 45.0756 5.65373 45.5368 5.37667C46.015 5.08232 46.536 4.93507 47.0996 4.93507H55.4521V7.06499ZM59.7749 4.93507H69.7159C70.2795 4.93507 70.792 5.0823 71.2531 5.37667C71.7314 5.65373 72.1071 6.03466 72.3804 6.51951C72.6708 6.98704 72.816 7.50652 72.816 8.07795V16.8571C72.816 17.4285 72.6708 17.9567 72.3804 18.4416C72.1071 18.9091 71.7314 19.29 71.2531 19.5844C70.792 19.8614 70.2795 20 69.7159 20H57.6739V0H59.7749V4.93507ZM94.9013 4.93507C95.482 4.93507 96.003 5.0823 96.4642 5.37667C96.9424 5.65373 97.3182 6.03467 97.5915 6.51951C97.8648 6.98703 98.0014 7.50653 98.0014 8.07795V20H95.9261V8.07795C95.9261 7.8009 95.8237 7.56707 95.6187 7.3766C95.4138 7.16881 95.1746 7.06499 94.9013 7.06499H88.7265C88.4533 7.06499 88.2142 7.16883 88.0092 7.3766C87.8213 7.56707 87.7273 7.80089 87.7273 8.07795V20H85.6008V8.07795C85.6008 7.80089 85.4983 7.56707 85.2933 7.3766C85.1055 7.16882 84.8748 7.06499 84.6015 7.06499H78.4013C78.128 7.06499 77.8888 7.16881 77.6838 7.3766C77.4959 7.56707 77.4021 7.8009 77.4021 8.07795V20H75.2754V4.93507H94.9013ZM102.883 20H100.782V4.93507H102.883V20ZM118.342 4.93507C118.906 4.93507 119.418 5.0823 119.879 5.37667C120.357 5.65373 120.733 6.03466 121.007 6.51951C121.297 6.98704 121.442 7.50652 121.442 8.07795V20H119.341V8.07795C119.341 7.80089 119.239 7.56707 119.034 7.3766C118.846 7.16881 118.615 7.06499 118.342 7.06499H109.426C109.153 7.06499 108.913 7.16881 108.708 7.3766C108.503 7.56707 108.401 7.8009 108.401 8.07795V20H106.3V4.93507H118.342ZM139 20H126.984C126.403 20 125.873 19.8614 125.395 19.5844C124.934 19.29 124.558 18.9091 124.268 18.4416C123.995 17.9567 123.858 17.4285 123.858 16.8571V8.07795C123.858 7.50653 123.995 6.98703 124.268 6.51951C124.558 6.03468 124.934 5.65373 125.395 5.37667C125.873 5.0823 126.403 4.93507 126.984 4.93507H136.899V0H139V20ZM60.7998 7.06499C60.5265 7.06499 60.2873 7.16881 60.0823 7.3766C59.8773 7.56707 59.7749 7.8009 59.7749 8.07795V16.8571C59.7749 17.1342 59.8773 17.3767 60.0823 17.5845C60.2873 17.7749 60.5265 17.8701 60.7998 17.8701H69.7159C69.9891 17.8701 70.2198 17.7749 70.4077 17.5845C70.6127 17.3767 70.7151 17.1342 70.7151 16.8571V8.07795C70.7151 7.80089 70.6127 7.56707 70.4077 7.3766C70.2198 7.16881 69.9892 7.06499 69.7159 7.06499H60.7998ZM126.984 7.06499C126.71 7.06499 126.471 7.16883 126.266 7.3766C126.078 7.56707 125.985 7.80089 125.985 8.07795V16.8571C125.985 17.1342 126.078 17.3767 126.266 17.5845C126.471 17.7749 126.71 17.8701 126.984 17.8701H135.9C136.173 17.8701 136.404 17.7749 136.592 17.5845C136.797 17.3767 136.899 17.1342 136.899 16.8571V8.07795C136.899 7.80089 136.797 7.56707 136.592 7.3766C136.404 7.16881 136.173 7.06499 135.9 7.06499H126.984ZM102.883 2.12992H100.782V0H102.883V2.12992Z" fill="var(--fill-0, #E7EEFF)"/>
</svg>
