<svg width="32" height="32" viewBox="0 0 32 32" fill="none" xmlns="http://www.w3.org/2000/svg">
<path d="M8.39746 0.400391L23.6025 0.400391C25.8102 0.400475 27.5995 2.18976 27.5996 4.39746V20C27.5996 26.4065 22.4065 31.5996 16 31.5996C9.5935 31.5996 4.40039 26.4065 4.40039 20L4.40039 4.39746C4.40048 2.18976 6.18976 0.400475 8.39746 0.400391Z" fill="#0D52FF"/>
<path d="M8.39746 0.400391L23.6025 0.400391C25.8102 0.400475 27.5995 2.18976 27.5996 4.39746V20C27.5996 26.4065 22.4065 31.5996 16 31.5996C9.5935 31.5996 4.40039 26.4065 4.40039 20L4.40039 4.39746C4.40048 2.18976 6.18976 0.400475 8.39746 0.400391Z" stroke="white" stroke-width="0.8"/>
<path d="M18.0057 18.47H22.8097V4.39758H18.0057V18.47ZM8.39764 18.47H16.5863V4.39758H8.39764V18.47Z" fill="white"/>
<ellipse cx="3.0571" cy="3.15221" rx="3.0571" ry="3.15221" transform="matrix(-0.994032 0.109088 0.109088 0.994032 25.1585 6.21558)" fill="#86A8FF"/>
<mask id="mask0_40_90" style="mask-type:alpha" maskUnits="userSpaceOnUse" x="19" y="6" width="7" height="7">
<ellipse cx="22.4636" cy="9.68235" rx="3.0571" ry="3.15221" transform="rotate(-6.26272 22.4636 9.68235)" fill="#01081A"/>
</mask>
<g mask="url(#mask0_40_90)">
<ellipse cx="25.5025" cy="9.34888" rx="3.82138" ry="3.94026" transform="rotate(-6.26272 25.5025 9.34888)" fill="#01081A"/>
</g>
<ellipse cx="3.0571" cy="3.15221" rx="3.0571" ry="3.15221" transform="matrix(-0.994032 0.109088 0.109088 0.994032 16.816 6.78772)" fill="#86A8FF"/>
<mask id="mask1_40_90" style="mask-type:alpha" maskUnits="userSpaceOnUse" x="11" y="7" width="7" height="7">
<ellipse cx="14.1211" cy="10.2546" rx="3.0571" ry="3.15221" transform="rotate(-6.26272 14.1211 10.2546)" fill="#01081A"/>
</mask>
<g mask="url(#mask1_40_90)">
<ellipse cx="17.1598" cy="9.92115" rx="3.82138" ry="3.94026" transform="rotate(-6.26272 17.1598 9.92115)" fill="#01081A"/>
</g>
</svg>
