<svg preserveAspectRatio="none" width="100%" height="100%" overflow="visible" style="display: block;" viewBox="0 0 54 13" fill="none" xmlns="http://www.w3.org/2000/svg">
<path id="Ellipse 13" opacity="0.8" d="M27 0.5C34.4282 0.5 41.137 1.22508 45.9746 2.38965C48.3973 2.97289 50.3231 3.65998 51.6309 4.4043C52.9777 5.17086 53.5 5.89776 53.5 6.5C53.5 7.10224 52.9777 7.82914 51.6309 8.5957C50.3231 9.34002 48.3973 10.0271 45.9746 10.6104C41.137 11.7749 34.4282 12.5 27 12.5C19.5718 12.5 12.863 11.7749 8.02539 10.6104C5.6027 10.0271 3.67688 9.34002 2.36914 8.5957C1.02234 7.82914 0.5 7.10224 0.5 6.5C0.5 5.89776 1.02234 5.17086 2.36914 4.4043C3.67688 3.65998 5.6027 2.97289 8.02539 2.38965C12.863 1.22508 19.5718 0.5 27 0.5Z" stroke="var(--stroke-0, #0D52FF)"/>
</svg>
