<svg preserveAspectRatio="none" width="100%" height="100%" overflow="visible" style="display: block;" viewBox="0 0 88 21" fill="none" xmlns="http://www.w3.org/2000/svg">
<path id="Ellipse 14" opacity="0.5" d="M44 0.5C56.1231 0.5 67.0827 1.67287 74.9971 3.56152C78.958 4.50678 82.1288 5.62538 84.2969 6.84863C86.5053 8.09467 87.5 9.34771 87.5 10.5C87.5 11.6523 86.5053 12.9053 84.2969 14.1514C82.1288 15.3746 78.958 16.4932 74.9971 17.4385C67.0827 19.3271 56.1231 20.5 44 20.5C31.8769 20.5 20.9173 19.3271 13.0029 17.4385C9.04196 16.4932 5.87125 15.3746 3.70312 14.1514C1.49475 12.9053 0.5 11.6523 0.5 10.5C0.5 9.34771 1.49475 8.09467 3.70312 6.84863C5.87125 5.62538 9.04196 4.50678 13.0029 3.56152C20.9173 1.67287 31.8769 0.5 44 0.5Z" stroke="var(--stroke-0, #0D52FF)"/>
</svg>
